# xmcd
#
# Track frame offsets:
#	150
#	14518
#	26023
#	43317
#	56793
#	71774
#	86267
#	100008
#	112426
#	124265
#	136536
#	152646
#	164924
#	175196
#	189571
#	203904
#
# Disc length: 2889 seconds
#
# Revision: 0
# Processed by: cddbd v1.5.2PL0 Copyright (c) Steve Scherf et al.
# Submitted via: SynApp - FreeCDDB Version: 2.3
#
DISCID=e80b4710
DTITLE=Various Artist - Country Super Stars
DYEAR=1988
DGENRE=Country
TTITLE0=Waylon Jennings - Luckenbach, Texas
TTITLE1=Dave and Sugar - I'm Knee Deep In Loving You
TTITLE2=Alabama - Mountain Music
TTITLE3=Charley Pride - You Win Again
TTITLE4=Sylvia - Nobody
TTITLE5=Ronnie Milsap - (There's) No Gettin' Over Me 
TTITLE6=Jim Ed Brown and Helen Cornelius - I Don't Want To Have To Marry You
TTITLE7=The McPeak Brothers - May I Sleep In Your Barn Tonight Mister
TTITLE8=Dolly Parton - Jolene
TTITLE9=Jerry Reed  - East Bound And Down
TTITLE10=Dicky Lee - Rocky
TTITLE11=Dolly Parton and Porter Wagoner - Please Don't Stop Loving Me
TTITLE12=Dave Dudley - Afraid Of A Heartache, Scared Of The Blues
TTITLE13=Razzy Bailey - She Left Love All Over Me
TTITLE14=Earl Thomas Conley - Somewhere Between Right And Wrong
TTITLE15=Bobby Bare - Marie Laveau
EXTD=
EXTT0=
EXTT1=
EXTT2=
EXTT3=
EXTT4=
EXTT5=
EXTT6=
EXTT7=
EXTT8=
EXTT9=
EXTT10=
EXTT11=
EXTT12=
EXTT13=
EXTT14=
EXTT15=
PLAYORDER=
